<?xml version="1.0" encoding="iso-8859-1"?>
<!-- Generator: Adobe Illustrator 16.0.3, SVG Export Plug-In . SVG Version: 6.00 Build 0)  -->
<!DOCTYPE svg PUBLIC "-//W3C//DTD SVG 1.1//EN" "http://www.w3.org/Graphics/SVG/1.1/DTD/svg11.dtd">
<svg version="1.1" id="Layer_2" xmlns="http://www.w3.org/2000/svg" xmlns:xlink="http://www.w3.org/1999/xlink" x="0px" y="0px"
	 width="50.333px" height="299.667px" viewBox="0 0 50.333 299.667" style="enable-background:new 0 0 50.333 299.667;"
	 xml:space="preserve">
<g>
	<path style="fill-rule:evenodd;clip-rule:evenodd;fill:#99CC99;" d="M12.607,44.88V16.301h-9.5V44.88H12.607L12.607,44.88z
		 M7.855,12.4c3.313,0,5.376-2.195,5.376-4.939c-0.061-2.801-2.063-4.936-5.315-4.936c-3.247,0-5.369,2.135-5.369,4.936
		c0,2.744,2.061,4.939,5.25,4.939H7.855L7.855,12.4z"/>
	<path style="fill-rule:evenodd;clip-rule:evenodd;fill:#99CC99;" d="M17.863,44.88h9.498V28.92c0-0.854,0.06-1.707,0.315-2.316
		c0.682-1.707,2.248-3.475,4.871-3.475c3.439,0,4.813,2.621,4.813,6.461v15.29h9.5V28.493c0-8.778-4.689-12.86-10.936-12.86
		c-5.127,0-7.376,2.863-8.625,4.816h0.063v-4.148h-9.498C17.988,18.981,17.863,44.88,17.863,44.88L17.863,44.88z"/>
</g>
<g>
	<path style="fill-rule:evenodd;clip-rule:evenodd;fill:#006600;" d="M12.607,95.002v-28.58h-9.5v28.58H12.607L12.607,95.002z
		 M7.855,62.522c3.313,0,5.376-2.196,5.376-4.939c-0.061-2.801-2.063-4.937-5.315-4.937c-3.247,0-5.369,2.136-5.369,4.937
		c0,2.743,2.061,4.939,5.25,4.939H7.855L7.855,62.522z"/>
	<path style="fill-rule:evenodd;clip-rule:evenodd;fill:#006600;" d="M17.863,95.002h9.498V79.041c0-0.854,0.06-1.707,0.315-2.316
		c0.682-1.707,2.248-3.474,4.871-3.474c3.439,0,4.813,2.62,4.813,6.462v15.289h9.5V78.615c0-8.778-4.689-12.86-10.936-12.86
		c-5.127,0-7.376,2.864-8.625,4.815h0.063v-4.148h-9.498C17.988,69.104,17.863,95.002,17.863,95.002L17.863,95.002z"/>
</g>
<path style="fill:#99CC99;" d="M29.301,145.336h-8.855v-21.404h-4.43v-7.379h4.43v-4.428c0-6.017,2.498-9.597,9.596-9.597h5.908
	v7.378h-3.695c-2.762,0-2.947,1.03-2.947,2.955l-0.007,3.691h6.692l-0.785,7.379h-5.907V145.336z"/>
<path style="fill:#006600;" d="M29.301,195.458h-8.855v-21.405h-4.43v-7.378h4.43v-4.428c0-6.017,2.498-9.597,9.596-9.597h5.908
	v7.378h-3.695c-2.762,0-2.947,1.03-2.947,2.955l-0.007,3.691h6.692l-0.785,7.378h-5.907V195.458z"/>
<path style="fill:#99CC99;" d="M33.784,237.334h-3.611c-1.456,0-2.69-0.516-3.71-1.531c-1.018-1.021-1.524-2.26-1.524-3.719v-5.24
	h8.846c1.459,0,2.703-0.52,3.738-1.557c1.039-1.037,1.039-3.121-0.002-4.16c-1.041-1.035-2.291-1.559-3.748-1.559h-8.834v-12.467
	c0-1.453-0.518-2.695-1.549-3.732c-1.026-1.039-4.171-1.048-5.199-0.031c-1.031,1.016-1.549,2.275-1.549,3.768v24.986
	c0,4.363-0.733,5.799,2.356,8.895c3.094,3.094,6.822,4.639,11.179,4.639h3.613c1.453,0,2.697-0.518,3.732-1.557
	c1.039-1.033,1.039-4.145,0-5.18C36.487,237.85,35.243,237.334,33.784,237.334z"/>
<path style="fill:#006600;" d="M33.784,287.455h-3.611c-1.456,0-2.69-0.514-3.71-1.531c-1.018-1.021-1.524-2.26-1.524-3.719v-5.24
	h8.846c1.459,0,2.703-0.52,3.738-1.557c1.039-1.037,1.039-3.121-0.002-4.16c-1.041-1.035-2.291-1.559-3.748-1.559h-8.834v-12.467
	c0-1.453-0.518-2.695-1.549-3.732c-1.026-1.039-4.171-1.047-5.199-0.031c-1.031,1.016-1.549,2.275-1.549,3.768v24.986
	c0,4.363-0.733,5.799,2.356,8.895c3.094,3.094,6.822,4.639,11.179,4.639h3.613c1.453,0,2.697-0.518,3.732-1.557
	c1.039-1.033,1.039-4.145,0-5.18C36.487,287.971,35.243,287.455,33.784,287.455z"/>
</svg>
